<svg xmlns="http://www.w3.org/2000/svg" version="1.1" xmlns:xlink="http://www.w3.org/1999/xlink" xmlns:svgjs="http://svgjs.com/svgjs" width="512.000000pt" height="512.000000pt"><svg version="1.0" xmlns="http://www.w3.org/2000/svg" width="512.000000pt" height="512.000000pt" viewBox="0 0 512.000000 512.000000" preserveAspectRatio="xMidYMid meet">

<g transform="translate(0.000000,512.000000) scale(0.100000,-0.100000)" fill="#000000" stroke="none">
<path d="M869 4506 c-103 -28 -190 -103 -237 -205 -24 -51 -27 -67 -27 -190 0
-117 2 -135 17 -145 13 -8 23 -8 35 0 15 9 19 32 23 140 6 151 23 199 96 263
87 77 -53 71 1784 71 1837 0 1697 6 1784 -71 24 -22 55 -61 68 -87 l23 -47 5
-1489 c5 -1404 6 -1489 23 -1500 12 -8 22 -8 35 0 16 11 17 93 17 1505 l0
1494 -32 66 c-39 79 -102 140 -181 177 l-57 27 -1665 2 c-1298 1 -1675 -1
-1711 -11z"></path>
<path d="M611 3866 c-8 -10 -11 -400 -9 -1502 l3 -1489 27 -57 c37 -79 98
-142 177 -181 l66 -32 1685 0 1685 0 66 32 c79 39 140 102 177 181 24 53 27
67 27 191 0 117 -2 135 -17 145 -13 8 -23 8 -35 0 -15 -9 -19 -32 -23 -140 -6
-151 -23 -199 -96 -263 -87 -77 53 -71 -1784 -71 -1868 0 -1704 -8 -1796 84
-91 92 -84 -49 -84 1621 0 1131 -3 1474 -12 1483 -16 16 -43 15 -57 -2z"></path>
<path d="M2401 3870 c-98 -14 -189 -36 -287 -71 -376 -132 -683 -449 -808
-833 -45 -138 -60 -238 -60 -406 0 -216 32 -367 120 -559 114 -248 353 -494
604 -621 80 -41 240 -94 345 -116 121 -25 364 -25 487 -1 266 53 499 177 688
367 95 94 195 230 250 340 42 82 97 247 117 348 23 120 23 366 0 484 -20 101
-76 266 -117 348 -182 360 -537 629 -933 705 -99 19 -317 27 -406 15z m414
-99 c482 -102 852 -473 958 -961 27 -126 29 -356 4 -483 -48 -242 -167 -465
-341 -640 -131 -131 -293 -234 -468 -295 -336 -119 -713 -84 -1023 95 -309
178 -521 469 -598 823 -29 134 -29 366 0 500 114 523 529 907 1058 979 99 14
304 5 410 -18z"></path>
<path d="M2536 2917 c-486 -163 -723 -248 -730 -260 -8 -12 -8 -22 0 -35 6 -9
100 -55 208 -101 l196 -84 0 -187 c0 -254 0 -254 176 -117 65 51 124 96 131
100 6 4 80 -51 179 -133 93 -77 176 -140 185 -140 9 0 21 6 27 13 12 14 412
1130 412 1150 0 20 -21 37 -44 36 -12 0 -345 -109 -740 -242z m539 85 c-6 -5
-160 -132 -344 -282 l-334 -272 -56 22 c-171 70 -367 154 -374 160 -7 6 1075
377 1108 379 5 1 5 -2 0 -7z m-48 -475 c-89 -251 -164 -457 -167 -457 -5 0
-247 201 -341 283 -47 41 -52 49 -39 61 37 35 703 576 706 573 2 -2 -69 -209
-159 -460z m-690 -144 c46 -21 125 -82 119 -92 -3 -3 -41 -35 -85 -69 l-81
-63 0 121 c0 66 2 120 4 120 2 0 21 -8 43 -17z"></path>
</g>
</svg><style>@media (prefers-color-scheme: light) { :root { filter: none; } }
</style></svg>